<svg xmlns="http://www.w3.org/2000/svg" width="106.404" height="106.313" viewBox="0 0 106.404 106.313">
    <defs>
        <style>
            .cls-1{fill:#d6dad9}
        </style>
    </defs>
    <g id="Group_1463" data-name="Group 1463" transform="translate(-15.229 -16.466)">
        <path id="Path_885" d="M24.093 68.844a.328.328 0 0 0 .239-.058.311.311 0 0 0 .135-.218l.794-5.237a.325.325 0 0 0-.058-.24.3.3 0 0 0-.218-.134l-1.242-.189a.306.306 0 0 0-.248.064.325.325 0 0 0-.126.212l-.516 3.4a.263.263 0 0 1-.107.179.277.277 0 0 1-.217.046l-1.045-.158a.3.3 0 0 1-.188-.1.234.234 0 0 1-.057-.2l.521-3.411a.325.325 0 0 0-.058-.24.311.311 0 0 0-.218-.134l-1.242-.189a.342.342 0 0 0-.374.276l-.519 3.417a.217.217 0 0 1-.126.168.406.406 0 0 1-.251.034l-1.285-.2a.383.383 0 0 1-.208-.1.216.216 0 0 1-.078-.2l.519-3.416a.317.317 0 0 0-.064-.241.33.33 0 0 0-.225-.135l-1.215-.185a.33.33 0 0 0-.388.274l-.794 5.237a.319.319 0 0 0 .056.247.34.34 0 0 0 .234.129z" class="cls-1" data-name="Path 885" transform="translate(0 -1.033)"/>
        <path id="Path_886" d="M27.273 54.108a.4.4 0 0 0 .253.117.192.192 0 0 0 .207-.1l.562-1.06c.04-.075.082-.163.125-.265a.277.277 0 0 0-.079-.309l-1-1.065a.515.515 0 0 1-.1-.185.268.268 0 0 1 .012-.22l.977-1.842a.3.3 0 0 1 .187-.168.744.744 0 0 1 .257-.011l1.407.213a.277.277 0 0 0 .3-.107 3.23 3.23 0 0 0 .15-.252l.555-1.047a.2.2 0 0 0-.025-.256.384.384 0 0 0-.246-.114l-9.152-1.4a.28.28 0 0 0-.171.047.384.384 0 0 0-.147.156l-.355.668a.384.384 0 0 0-.044.219.31.31 0 0 0 .06.177zm-2.3-5.5a.156.156 0 0 1 .191-.116l.923.149a.277.277 0 0 1 .139.058c.042.033.031.108-.031.227l-.228.428q-.107.2-.2.193a.234.234 0 0 1-.154-.074l-.6-.64a.223.223 0 0 1-.043-.223z" class="cls-1" data-name="Path 886" transform="translate(-.131 -.676)"/>
        <path id="Path_887" d="M117.112 92.473a4.852 4.852 0 0 0-1.393-1.146 4.395 4.395 0 0 0-3.116-.439 4.3 4.3 0 0 0-1.519.694 4.106 4.106 0 0 0-1.2 1.365 4.015 4.015 0 0 0-.458 1.188 4.454 4.454 0 0 0-.089 1.019 3.3 3.3 0 0 0 .115.778 3.987 3.987 0 0 0 .161.467l1.089-.478a2.7 2.7 0 0 1-.268-1.2 2.584 2.584 0 0 1 .359-1.237 3.129 3.129 0 0 1 .863-1.008 2.845 2.845 0 0 1 1.09-.5 3.082 3.082 0 0 1 1.2-.026 3.632 3.632 0 0 1 1.187.424 3.849 3.849 0 0 1 1.042.84 3.283 3.283 0 0 1 .628 1.073 2.924 2.924 0 0 1 .152 1.2 2.977 2.977 0 0 1-.394 1.239 2.649 2.649 0 0 1-.759.85 2.314 2.314 0 0 1-1.05.433l.164 1.168a3.007 3.007 0 0 0 1.483-.653 4.319 4.319 0 0 0 1.066-1.251 4.579 4.579 0 0 0 .575-1.694 3.961 3.961 0 0 0-.134-1.642 4.194 4.194 0 0 0-.794-1.464z" class="cls-1" data-name="Path 887" transform="translate(-2.152 -1.699)"/>
        <path id="Rectangle_3083" d="M0 0h1.126v8.302H0z" class="cls-1" data-name="Rectangle 3083" transform="rotate(-71.64 113.874 -34.78)"/>
        <path id="Path_888" d="M24.939 79.346a.308.308 0 0 0 .082-.242l-.091-1.253a.309.309 0 0 0-.116-.228.321.321 0 0 0-.235-.076l-1.652.12a.3.3 0 0 1-.318-.235 1.244 1.244 0 0 1-.09-.251c-.015-.065-.029-.141-.045-.226a.8.8 0 0 1-.006-.272.187.187 0 0 1 .09-.15l1.981-1.3a.525.525 0 0 0 .127-.131.394.394 0 0 0 .046-.254l-.1-1.4c-.011-.151-.06-.232-.147-.239a.485.485 0 0 0-.281.07L22 74.542a.623.623 0 0 1-.4.079.8.8 0 0 1-.325-.24 4.178 4.178 0 0 0-1.239-.891 2.824 2.824 0 0 0-1.423-.277 4.049 4.049 0 0 0-1.568.394 2.5 2.5 0 0 0-.981.879 3.372 3.372 0 0 0-.468 1.338 8.2 8.2 0 0 0-.043 1.778l.158 2.179a.32.32 0 0 0 .109.228.337.337 0 0 0 .256.074l8.645-.627a.327.327 0 0 0 .218-.11zm-4.317-1.583a.377.377 0 0 1-.231.088l-2.606.19a.277.277 0 0 1-.205-.071.27.27 0 0 1-.1-.193l-.023-.313a5.911 5.911 0 0 1 0-.9 1.821 1.821 0 0 1 .2-.723 1.3 1.3 0 0 1 .465-.492 1.725 1.725 0 0 1 .786-.222 1.254 1.254 0 0 1 .631.119 1.658 1.658 0 0 1 .546.418 2.29 2.29 0 0 1 .4.68 3.014 3.014 0 0 1 .193.888l.024.327a.241.241 0 0 1-.08.204z" class="cls-1" data-name="Path 888" transform="translate(-.007 -1.297)"/>
        <path id="Path_889" d="M27.244 89.411a3.234 3.234 0 0 0 .091-2.8 3.273 3.273 0 0 0-1.775-2.182 4.354 4.354 0 0 0-3 .13l-4.98 1.683a.328.328 0 0 0-.22.42l.4 1.191a.321.321 0 0 0 .163.193.335.335 0 0 0 .267.008l4.357-1.468a9.212 9.212 0 0 1 1.136-.316 2.384 2.384 0 0 1 .847-.037 1.116 1.116 0 0 1 .6.294 1.688 1.688 0 0 1 .4.694 1.655 1.655 0 0 1 .1.781 1.118 1.118 0 0 1-.3.6 2.411 2.411 0 0 1-.7.483 9.32 9.32 0 0 1-1.1.438l-4.357 1.468a.341.341 0 0 0-.207.168.319.319 0 0 0-.013.253l.4 1.177a.321.321 0 0 0 .163.193.338.338 0 0 0 .267.008l4.979-1.678a4.4 4.4 0 0 0 2.482-1.701z" class="cls-1" data-name="Path 889" transform="translate(-.048 -1.549)"/>
        <path id="Path_890" d="M105.456 42.538l6.662-2.349.014.019-4.323 5.592.7.97 8.145-2.9-.686-.951-6.456 2.4-.014-.02 4.24-5.466-.754-1.046-6.524 2.3-.014-.02 4.307-5.371-.686-.951-5.312 6.826z" class="cls-1" data-name="Path 890" transform="translate(-2.047 -.418)"/>
        <path id="Path_891" d="M113.353 56.96l2.192.289.974 3.829-1.783 1.313.323 1.272 7.169-5.49-.251-.989-8.948-1.5zm7.325 1.016l.006.022-3.311 2.44-.775-3.046z" class="cls-1" data-name="Path 891" transform="translate(-2.236 -.897)"/>
        <path id="Path_892" d="M115.534 67.993l3.587-.08.086 3.81 1.055-.023-.086-3.81 2.6-.059.092 4.091 1.055-.023-.117-5.217-8.3.187z" class="cls-1" data-name="Path 892" transform="translate(-2.293 -1.148)"/>
        <path id="Path_893" d="M39.474 36.874a.326.326 0 0 0 .209.131.3.3 0 0 0 .249-.057l1.019-.736a.306.306 0 0 0 .133-.219.33.33 0 0 0-.059-.239l-.969-1.343a.3.3 0 0 1 .033-.394 1.406 1.406 0 0 1 .166-.208c.049-.047.1-.1.169-.157a.828.828 0 0 1 .229-.147.188.188 0 0 1 .174 0l2.15 1a.53.53 0 0 0 .178.038.381.381 0 0 0 .239-.094l1.135-.819c.123-.089.166-.173.127-.25a.487.487 0 0 0-.207-.2l-2.22-1.2a.634.634 0 0 1-.279-.3.811.811 0 0 1 .035-.4 4.191 4.191 0 0 0 .107-1.521 2.8 2.8 0 0 0-.512-1.359 4.046 4.046 0 0 0-1.157-1.129 2.5 2.5 0 0 0-1.264-.373 3.385 3.385 0 0 0-1.384.3 8.212 8.212 0 0 0-1.536.9l-1.772 1.278a.319.319 0 0 0-.137.213.337.337 0 0 0 .07.257zM37.1 29.833l.255-.184a5.837 5.837 0 0 1 .767-.475 1.835 1.835 0 0 1 .719-.211 1.287 1.287 0 0 1 .662.138 1.722 1.722 0 0 1 .6.553 1.25 1.25 0 0 1 .23.6 1.674 1.674 0 0 1-.069.684 2.283 2.283 0 0 1-.368.7 3.012 3.012 0 0 1-.655.631l-.266.192a.236.236 0 0 1-.217.042.378.378 0 0 1-.2-.15l-1.518-2.121a.273.273 0 0 1-.048-.212.276.276 0 0 1 .108-.187z" class="cls-1" data-name="Path 893" transform="translate(-.437 -.239)"/>
        <path id="Path_894" d="M115.332 76.8l3.6.637-.219 1.236-3.97 1.441-.243 1.386 4.14-1.661a2.239 2.239 0 0 0 .1.88 2.3 2.3 0 0 0 .384.723 2.174 2.174 0 0 0 .587.515 2.143 2.143 0 0 0 .732.272 2.936 2.936 0 0 0 .812.024 1.875 1.875 0 0 0 .811-.278 2.262 2.262 0 0 0 .685-.706 3.408 3.408 0 0 0 .442-1.256l.509-2.876-8.176-1.445zm4.315 2.264l.257-1.455 2.632.465-.257 1.455a4.01 4.01 0 0 1-.165.632 1.768 1.768 0 0 1-.29.532 1.061 1.061 0 0 1-.469.328 1.621 1.621 0 0 1-1.355-.236 1.051 1.051 0 0 1-.327-.469 1.732 1.732 0 0 1-.091-.6 4.029 4.029 0 0 1 .065-.649z" class="cls-1" data-name="Path 894" transform="translate(-2.27 -1.354)"/>
        <path id="Path_895" d="M101.126 37.987l.682-.805-3.391-2.873 1.721-2.03 3.006 2.546.682-.805-3.006-2.546 1.6-1.888 3.229 2.736.682-.805-4.088-3.464-5.366 6.335z" class="cls-1" data-name="Path 895" transform="translate(-1.867 -.265)"/>
        <path id="Path_896" d="M34.167 37.875a.323.323 0 0 0 .083-.233.305.305 0 0 0-.11-.231l-.939-.835a.341.341 0 0 0-.463.027l-2.3 2.582a.228.228 0 0 1-.188.082.3.3 0 0 1-.2-.079l-1.046-.93a.3.3 0 0 1-.1-.187.231.231 0 0 1 .06-.2l2.3-2.582a.316.316 0 0 0 .077-.237.333.333 0 0 0-.115-.236L30.309 34a.33.33 0 0 0-.474.018l-3.521 3.959a.315.315 0 0 0-.087.237.336.336 0 0 0 .125.235l6.476 5.759a.325.325 0 0 0 .233.083.308.308 0 0 0 .232-.109l.834-.939a.307.307 0 0 0 .082-.242.325.325 0 0 0-.109-.222l-2.187-1.945a.305.305 0 0 1-.1-.186.23.23 0 0 1 .06-.2z" class="cls-1" data-name="Path 896" transform="translate(-.252 -.399)"/>
        <path id="Path_897" d="M98.55 106.952l3.856 5.631-.02.013-7.668-3.02-1.18.808 4.691 6.85.928-.636-3.856-5.63.02-.014L102.95 114l1.219-.835-4.691-6.85z" class="cls-1" data-name="Path 897" transform="translate(-1.791 -2.055)"/>
        <path id="Path_898" d="M72.535 25.673a.376.376 0 0 0-.014-.272l-3.034-8.746a.279.279 0 0 0-.121-.129.387.387 0 0 0-.207-.058h-.756a.394.394 0 0 0-.214.064.3.3 0 0 0-.129.136l-3.092 8.717a.4.4 0 0 0 .014.278.191.191 0 0 0 .185.136h1.2c.085 0 .183 0 .292-.014a.277.277 0 0 0 .236-.213l.475-1.385a.508.508 0 0 1 .114-.178.263.263 0 0 1 .2-.092h2.085a.3.3 0 0 1 .235.086.749.749 0 0 1 .136.229l.468 1.344a.276.276 0 0 0 .235.215q.164.015.293.015h1.185a.2.2 0 0 0 .214-.133zm-3.489-3.664h-.486c-.152 0-.24-.029-.264-.087a.235.235 0 0 1-.007-.171l.288-.828a.225.225 0 0 1 .179-.143.158.158 0 0 1 .192.115l.3.885a.263.263 0 0 1 .014.15c-.011.053-.083.078-.216.078z" class="cls-1" data-name="Path 898" transform="translate(-1.137)"/>
        <path id="Rectangle_3084" d="M0 0h8.302v1.126H0z" class="cls-1" data-name="Rectangle 3084" transform="rotate(-84.17 100.165 25.62)"/>
        <path id="Path_899" d="M32.743 97.522a.31.31 0 0 0-.208-.149.328.328 0 0 0-.243.041l-1.411.867a.333.333 0 0 1-.214.048.222.222 0 0 1-.176-.109l-.18-.292a5.339 5.339 0 0 0-1.158-1.367 3.72 3.72 0 0 0-1.325-.71 3.207 3.207 0 0 0-1.414-.078 3.892 3.892 0 0 0-1.414.542 3.019 3.019 0 0 0-1.58 2.235 4.842 4.842 0 0 0 .88 3.07l1.144 1.861a.32.32 0 0 0 .2.152.336.336 0 0 0 .261-.052l7.385-4.538a.325.325 0 0 0 .147-.2.307.307 0 0 0-.038-.253zm-4.029 2.09l-2.226 1.368a.294.294 0 0 1-.393-.094l-.164-.268a2.94 2.94 0 0 1-.55-1.632 1.4 1.4 0 0 1 .758-1.111q1.375-.844 2.542 1.053l.171.279a.239.239 0 0 1 .026.219.375.375 0 0 1-.163.186z" class="cls-1" data-name="Path 899" transform="translate(-.187 -1.813)"/>
        <path id="Path_900" d="M60.269 119.534l-1.217-.308-1.152-4.065-1.364-.345 1.355 4.25a2.249 2.249 0 0 0-.885.036 2.3 2.3 0 0 0-.749.33 2.2 2.2 0 0 0-.556.548 2.123 2.123 0 0 0-.324.71 2.942 2.942 0 0 0-.084.807 1.877 1.877 0 0 0 .22.83 2.217 2.217 0 0 0 .655.735 3.421 3.421 0 0 0 1.219.533l2.831.716 2.037-8.048-1.091-.277zm-.9 3.546l-1.432-.363a4.048 4.048 0 0 1-.619-.211 1.717 1.717 0 0 1-.509-.328 1.062 1.062 0 0 1-.293-.491 1.617 1.617 0 0 1 .337-1.33 1.057 1.057 0 0 1 .492-.293 1.768 1.768 0 0 1 .6-.046 4.01 4.01 0 0 1 .644.108l1.432.363z" class="cls-1" data-name="Path 900" transform="translate(-.916 -2.249)"/>
        <path id="Path_901" d="M86.4 119.1a2.42 2.42 0 0 0-.933-.523 4 4 0 0 0-1.067-.156c-.371 0-.716-.021-1.037-.049a2.626 2.626 0 0 1-.842-.2.9.9 0 0 1-.492-.622 1.158 1.158 0 0 1-.016-.618 1.458 1.458 0 0 1 .261-.524 1.743 1.743 0 0 1 .442-.4 2 2 0 0 1 .53-.24 2.332 2.332 0 0 1 1-.057 1.856 1.856 0 0 1 .933.438l.675-1.018a2.491 2.491 0 0 0-1.33-.528 4.094 4.094 0 0 0-1.532.14 3.52 3.52 0 0 0-1.036.474 2.714 2.714 0 0 0-.744.734 2.378 2.378 0 0 0-.373.945 2.463 2.463 0 0 0 .072 1.1 1.994 1.994 0 0 0 .613 1.052 2.293 2.293 0 0 0 .912.449 4.233 4.233 0 0 0 1.055.111 8.974 8.974 0 0 1 1.034.037 2.381 2.381 0 0 1 .852.235 1.044 1.044 0 0 1 .512.7 1.268 1.268 0 0 1 .038.416 1.128 1.128 0 0 1-.141.472 1.4 1.4 0 0 1-.395.44 2.132 2.132 0 0 1-.717.33 1.882 1.882 0 0 1-.9.046 1.516 1.516 0 0 1-.719-.346l-.655 1.049a2.241 2.241 0 0 0 1.257.439 4.477 4.477 0 0 0 1.3-.173 3.237 3.237 0 0 0 1.175-.568 2.735 2.735 0 0 0 .686-.785 2.208 2.208 0 0 0 .219-1.645 2.352 2.352 0 0 0-.637-1.155z" class="cls-1" data-name="Path 901" transform="translate(-1.5 -2.244)"/>
        <path id="Path_902" d="M75.448 116.563l.265 3.649-1.789.13a3.384 3.384 0 0 0-1.294.312 2.218 2.218 0 0 0-.773.609 1.884 1.884 0 0 0-.362.778 2.814 2.814 0 0 0 .116 1.6 1.884 1.884 0 0 0 .47.718 2.227 2.227 0 0 0 .853.491 3.4 3.4 0 0 0 1.325.121l2.912-.211-.6-8.28zm-.944 7.4a4.045 4.045 0 0 1-.653-.006 1.76 1.76 0 0 1-.587-.151 1.061 1.061 0 0 1-.433-.374 1.62 1.62 0 0 1-.1-1.368 1.05 1.05 0 0 1 .374-.433 1.748 1.748 0 0 1 .559-.235 3.986 3.986 0 0 1 .645-.1l1.474-.107.193 2.667z" class="cls-1" data-name="Path 902" transform="translate(-1.285 -2.287)"/>
        <path id="Path_903" d="M50.054 30.372a.318.318 0 0 0-.01-.249l-3.779-7.8a.325.325 0 0 0-.2-.181.329.329 0 0 0-.246.016l-1.131.548a.319.319 0 0 0-.172.187.341.341 0 0 0 .025.265l3.779 7.8a.326.326 0 0 0 .184.165.3.3 0 0 0 .255-.013l1.132-.548a.313.313 0 0 0 .163-.19z" class="cls-1" data-name="Path 903" transform="translate(-.669 -.129)"/>
        <path id="Path_904" d="M46.1 110.007l-3.7 6.232-2.3-1.365-.538.908 5.566 3.3.538-.907-2.3-1.365 3.7-6.231z" class="cls-1" data-name="Path 904" transform="translate(-.556 -2.139)"/>
        <path id="Path_905" d="M95.972 24.113l-3.054 6.1-.022-.011-1.035-8.149-1.322-.662-3.715 7.424 1.007.5 3.054-6.1.021.011 1.078 8.17 1.28.64 3.715-7.423z" class="cls-1" data-name="Path 905" transform="translate(-1.637 -.113)"/>
        <path id="Path_906" d="M58.294 27.515A4.905 4.905 0 0 0 60 26.727a4.343 4.343 0 0 0 1.2-1.337.352.352 0 0 0 .045-.255.283.283 0 0 0-.161-.2l-1.028-.622a.323.323 0 0 0-.269-.043.41.41 0 0 0-.216.166 4.034 4.034 0 0 1-.745.749 2.722 2.722 0 0 1-1.006.477 2.848 2.848 0 0 1-2.183-.3 2.81 2.81 0 0 1-.813-.737 2.9 2.9 0 0 1-.5-1.052 2.941 2.941 0 0 1-.067-1.162 2.911 2.911 0 0 1 .362-1.042 2.779 2.779 0 0 1 .727-.819 2.867 2.867 0 0 1 1.046-.494 2.708 2.708 0 0 1 1.112-.062 4.09 4.09 0 0 1 1.012.3.329.329 0 0 0 .484-.121l.609-1.024a.31.31 0 0 0 .044-.262.4.4 0 0 0-.163-.209 4.533 4.533 0 0 0-1.69-.593 4.8 4.8 0 0 0-1.879.116 4.622 4.622 0 0 0-1.705.825A4.8 4.8 0 0 0 53 20.4a4.928 4.928 0 0 0-.619 1.733 4.806 4.806 0 0 0 .922 3.626 4.834 4.834 0 0 0 3.1 1.842 4.629 4.629 0 0 0 1.891-.086z" class="cls-1" data-name="Path 906" transform="translate(-.848 -.036)"/>
        <path id="Path_907" d="M106.414 98.878l.988 1.977-2.626 2.953-2.087-.742-.873.981 8.565 2.862.678-.762-3.772-8.247zm3.263 6.636l-.016.018-3.876-1.376 2.088-2.348z" class="cls-1" data-name="Path 907" transform="translate(-1.98 -1.862)"/>
        <path id="Rectangle_3085" d="M0 0h8.302v1.126H0z" class="cls-1" data-name="Rectangle 3085" transform="rotate(-66.17 115.15 22.238)"/>
    </g>
</svg>
