<svg xmlns="http://www.w3.org/2000/svg" width="28.399" height="30.305" viewBox="0 0 28.399 30.305">
    <defs>
        <style>
            .cls-1{fill:#fff}
        </style>
    </defs>
    <g id="Logo">
        <g id="Group_1460" data-name="Group 1460">
            <g id="Group_1459" data-name="Group 1459">
                <path id="Path_879" d="M140.634 20.091a13.687 13.687 0 0 0-1.879-1.185 11.2 11.2 0 0 0-2.039-.758 19.23 19.23 0 0 1-1.172-.379c-.82-.3-1.695-.66-2.673-1.086a63.77 63.77 0 0 1-2.945-1.364 10.506 10.506 0 0 0-4.75-.806c-8.309 1.586-9.561 11.536-9.572 11.631a15.287 15.287 0 0 0 .2 6.764 9.2 9.2 0 0 0 1 2.453 19.978 19.978 0 0 0 7.359 6.779 29.19 29.19 0 0 0 4.387 2.06 8.7 8.7 0 0 0 3.057.587 8.214 8.214 0 0 0 3.936-1.055c1.717-.918 3.382-2.01 3.937-3.768a5.071 5.071 0 0 0 .112-1.89 3.841 3.841 0 0 1 .237-2.087 4.272 4.272 0 0 1 .867-1 6.764 6.764 0 0 0 .6-.618 9.981 9.981 0 0 0 1.917-3.551 18.373 18.373 0 0 0 .508-4.639 7.127 7.127 0 0 0-3.087-6.088zm2.266 10.648a9.666 9.666 0 0 1-1.858 3.435 6.618 6.618 0 0 1-.579.595 4.433 4.433 0 0 0-.923 1.075 4.145 4.145 0 0 0-.272 2.256 4.817 4.817 0 0 1-.1 1.77c-.52 1.649-2.125 2.7-3.781 3.582a7.714 7.714 0 0 1-6.731.451 28.743 28.743 0 0 1-4.342-2.043 19.656 19.656 0 0 1-7.247-6.67 9.062 9.062 0 0 1-.961-2.367 14.99 14.99 0 0 1-.189-6.634 17.355 17.355 0 0 1 1.611-5.137 10.914 10.914 0 0 1 7.691-6.22 5.381 5.381 0 0 1 .577-.024 10.766 10.766 0 0 1 3.992.806c.867.434 1.8.868 2.948 1.366.975.425 1.855.782 2.69 1.092.4.148.8.269 1.2.388a11.008 11.008 0 0 1 1.975.732 13.443 13.443 0 0 1 1.834 1.158 6.826 6.826 0 0 1 2.96 5.834 18.069 18.069 0 0 1-.495 4.555z" class="cls-1" data-name="Path 879" transform="translate(-115.323 -14.486)"/>
                <path id="Path_880" d="M139.6 22.089a11.679 11.679 0 0 0-1.6-1.012 9.557 9.557 0 0 0-1.738-.646c-.334-.1-.679-.2-1.013-.328a45.134 45.134 0 0 1-2.3-.934 55.34 55.34 0 0 1-2.527-1.17 8.951 8.951 0 0 0-4.044-.689c-7.145 1.364-8.162 9.856-8.17 9.936a13.055 13.055 0 0 0 .167 5.782 7.9 7.9 0 0 0 .851 2.092 17.092 17.092 0 0 0 6.3 5.8 25.025 25.025 0 0 0 3.753 1.764 6.953 6.953 0 0 0 2.891.544 9.931 9.931 0 0 0 2.533-.339.078.078 0 0 0-.04-.15 8.029 8.029 0 0 1-5.323-.2 24.772 24.772 0 0 1-3.737-1.758 16.941 16.941 0 0 1-6.243-5.747 11.309 11.309 0 0 1-1-7.769c.009-.084 1.014-8.463 8.04-9.805a8.8 8.8 0 0 1 3.956.677c.742.37 1.546.743 2.529 1.171.839.365 1.594.672 2.306.937.338.125.685.229 1.022.33a9.559 9.559 0 0 1 1.71.635 11.557 11.557 0 0 1 1.584 1 5.918 5.918 0 0 1 2.565 5.058 15.551 15.551 0 0 1-.429 3.929 7.587 7.587 0 0 1-1.175 2.439 4.233 4.233 0 0 1-.87.92l-.182.129a2.091 2.091 0 0 0-.735.712 3.509 3.509 0 0 0-.189 1.981c.011.117.022.232.03.345a3.557 3.557 0 0 1-.643 2.34 6.218 6.218 0 0 1-1.761 1.894.078.078 0 0 0-.021.107.076.076 0 0 0 .107.022 6.363 6.363 0 0 0 1.807-1.941 3.7 3.7 0 0 0 .667-2.434c-.009-.114-.02-.231-.031-.347a3.4 3.4 0 0 1 .173-1.9 1.98 1.98 0 0 1 .685-.655c.063-.044.126-.087.185-.131a4.353 4.353 0 0 0 .9-.953 7.753 7.753 0 0 0 1.2-2.489 15.7 15.7 0 0 0 .435-3.969 6.062 6.062 0 0 0-2.625-5.178z" class="cls-1" data-name="Path 880" transform="translate(-116.025 -15.23)"/>
                <path id="Path_881" d="M135.5 41.345c-1.9 1.622-5.246.721-5.273.713a20.538 20.538 0 0 1-3.087-1.451 14 14 0 0 1-5.157-4.747 9.342 9.342 0 0 1-.822-6.414c.008-.07.838-6.987 6.636-8.095a7.249 7.249 0 0 1 3.263.559c.616.307 1.28.615 2.091.968.7.3 1.319.556 1.908.775.28.1.567.19.845.273a7.824 7.824 0 0 1 1.412.524 9.556 9.556 0 0 1 1.307.825 4.878 4.878 0 0 1 2.115 4.171 12.794 12.794 0 0 1-.354 3.244 7.213 7.213 0 0 1-1.155 1.941c-.248.337-.483.656-.649.936a4.612 4.612 0 0 0-.592 2.441 4.181 4.181 0 0 1-.129 1.1.077.077 0 1 0 .148.046 4.3 4.3 0 0 0 .136-1.142 4.494 4.494 0 0 1 .57-2.367c.164-.274.4-.59.641-.924a7.256 7.256 0 0 0 1.18-1.991 12.974 12.974 0 0 0 .36-3.284 5.023 5.023 0 0 0-2.177-4.3 9.768 9.768 0 0 0-1.328-.838 7.98 7.98 0 0 0-1.439-.535 13.548 13.548 0 0 1-.837-.27 36.655 36.655 0 0 1-1.9-.771 44.122 44.122 0 0 1-2.089-.967 7.433 7.433 0 0 0-3.351-.571c-5.916 1.13-6.758 8.16-6.764 8.225a10.809 10.809 0 0 0 .14 4.786 6.534 6.534 0 0 0 .7 1.733 14.145 14.145 0 0 0 5.21 4.8 20.591 20.591 0 0 0 3.117 1.465 9.081 9.081 0 0 0 2.158.263 5 5 0 0 0 3.264-1.006.077.077 0 1 0-.1-.118z" class="cls-1" data-name="Path 881" transform="translate(-116.779 -16.263)"/>
                <path id="Path_882" d="M138.189 37.091a7.114 7.114 0 0 1 .831-1.264c.166-.216.337-.44.508-.692a3.526 3.526 0 0 0 .335-2.388c-.016-.186-.033-.372-.043-.557-.068-1.235-.21-3.8-1.789-4.744a4.836 4.836 0 0 0-2.067-.532l-.1-.009a14.465 14.465 0 0 1-.778-.09 20.879 20.879 0 0 1-3.275-.771l-.121-.04a8.536 8.536 0 0 0-2.831-.571 3.726 3.726 0 0 0-1.124.162 3.592 3.592 0 0 0-1.53 1.49l-.159.23c-1.08 1.521-2.735 4.532-1.692 7.608a6.645 6.645 0 0 0 .718 1.465.078.078 0 0 0 .131-.084 6.553 6.553 0 0 1-.7-1.43c-1.02-3.012.609-5.973 1.672-7.47l.161-.231a3.484 3.484 0 0 1 1.453-1.432 3.567 3.567 0 0 1 1.078-.154 8.39 8.39 0 0 1 2.779.563l.122.039a20.913 20.913 0 0 0 3.3.777c.259.04.527.065.787.09l.1.01a4.7 4.7 0 0 1 2 .511c1.508.9 1.648 3.41 1.714 4.618.01.187.026.375.043.563a3.411 3.411 0 0 1-.309 2.287c-.167.248-.338.47-.5.685a7.331 7.331 0 0 0-.847 1.291 4.825 4.825 0 0 0-.3 1.027 2.89 2.89 0 0 1-.679 1.6c-1.662 1.36-4.719 1.222-6.858.517a8.937 8.937 0 0 1-1.584-.71.077.077 0 1 0-.076.134 9.069 9.069 0 0 0 1.612.722 10.85 10.85 0 0 0 3.3.528 5.869 5.869 0 0 0 3.7-1.072 2.985 2.985 0 0 0 .733-1.689 4.733 4.733 0 0 1 .285-.987z" class="cls-1" data-name="Path 882" transform="translate(-117.633 -17.392)"/>
                <path id="Path_883" d="M133.229 39.133a5.645 5.645 0 0 0 4.8-2.175c1.109-1.64.776-2.961-.123-4.559a3.8 3.8 0 0 1-.4-1.751c-.125-1.919-2.238-1.924-3.782-1.927-.239 0-.466 0-.671-.009a4.424 4.424 0 0 1-1.253-.31 2.476 2.476 0 0 0-2.228-.071 4.822 4.822 0 0 0-1.548 2.048l-.144.281a6.56 6.56 0 0 0-.42 1 6.733 6.733 0 0 0-.325 1.9 5.028 5.028 0 0 0 2.822 4.89 8.158 8.158 0 0 0 3.272.683zm-5.94-5.563a6.529 6.529 0 0 1 .318-1.859 6.429 6.429 0 0 1 .409-.98c.048-.091.1-.185.145-.281a4.724 4.724 0 0 1 1.49-1.986 1.505 1.505 0 0 1 .8-.223 4.04 4.04 0 0 1 1.3.307 4.543 4.543 0 0 0 1.3.319c.206.007.435.008.677.008 1.565 0 3.513.008 3.628 1.783a3.911 3.911 0 0 0 .421 1.817c.891 1.587 1.2 2.815.129 4.4-1.593 2.356-5.331 2.583-7.882 1.444a4.875 4.875 0 0 1-2.735-4.748z" class="cls-1" data-name="Path 883" transform="translate(-118.458 -18.097)"/>
                <path id="Path_884" d="M133.383 38.242h.021a5.74 5.74 0 0 0 1.607-.287 4.2 4.2 0 0 0 1.555-.732 3.163 3.163 0 0 0 .97-2.649 9.061 9.061 0 0 0-.782-2.757 1.965 1.965 0 0 0-.483-.79 1.992 1.992 0 0 0-1.5-.265l-.291.019a3.9 3.9 0 0 1-1.225-.178l-.2-.057a5.534 5.534 0 0 0-1.166-.239c-2.048-.131-2.771 2.513-2.945 3.325a3.258 3.258 0 0 0 .269 2.3 4.09 4.09 0 0 0 1.392 1.314 5.209 5.209 0 0 0 2.778.996zm-4.034-2.389a3.1 3.1 0 0 1-.251-2.19c.163-.763.829-3.207 2.652-3.207h.131a5.427 5.427 0 0 1 1.133.234l.2.057a4.053 4.053 0 0 0 1.273.185c.1-.005.2-.012.3-.02a1.881 1.881 0 0 1 1.386.229 1.808 1.808 0 0 1 .44.73 8.944 8.944 0 0 1 .771 2.71 3.011 3.011 0 0 1-.916 2.52 4.066 4.066 0 0 1-1.5.7 5.493 5.493 0 0 1-1.584.281 5.067 5.067 0 0 1-2.694-.973 3.96 3.96 0 0 1-1.341-1.257z" class="cls-1" data-name="Path 884" transform="translate(-118.915 -18.684)"/>
            </g>
        </g>
        <g id="Group_1461" data-name="Group 1461">
            <g id="Group_1459-2" data-name="Group 1459">
                <path id="Path_879-2" d="M140.634 20.091a13.687 13.687 0 0 0-1.879-1.185 11.2 11.2 0 0 0-2.039-.758 19.23 19.23 0 0 1-1.172-.379c-.82-.3-1.695-.66-2.673-1.086a63.77 63.77 0 0 1-2.945-1.364 10.506 10.506 0 0 0-4.75-.806c-8.309 1.586-9.561 11.536-9.572 11.631a15.287 15.287 0 0 0 .2 6.764 9.2 9.2 0 0 0 1 2.453 19.978 19.978 0 0 0 7.359 6.779 29.19 29.19 0 0 0 4.387 2.06 8.7 8.7 0 0 0 3.057.587 8.214 8.214 0 0 0 3.936-1.055c1.717-.918 3.382-2.01 3.937-3.768a5.071 5.071 0 0 0 .112-1.89 3.841 3.841 0 0 1 .237-2.087 4.272 4.272 0 0 1 .867-1 6.764 6.764 0 0 0 .6-.618 9.981 9.981 0 0 0 1.917-3.551 18.373 18.373 0 0 0 .508-4.639 7.127 7.127 0 0 0-3.087-6.088zm2.266 10.648a9.666 9.666 0 0 1-1.858 3.435 6.618 6.618 0 0 1-.579.595 4.433 4.433 0 0 0-.923 1.075 4.145 4.145 0 0 0-.272 2.256 4.817 4.817 0 0 1-.1 1.77c-.52 1.649-2.125 2.7-3.781 3.582a7.714 7.714 0 0 1-6.731.451 28.743 28.743 0 0 1-4.342-2.043 19.656 19.656 0 0 1-7.247-6.67 9.062 9.062 0 0 1-.961-2.367 14.99 14.99 0 0 1-.189-6.634 17.355 17.355 0 0 1 1.611-5.137 10.914 10.914 0 0 1 7.691-6.22 5.381 5.381 0 0 1 .577-.024 10.766 10.766 0 0 1 3.992.806c.867.434 1.8.868 2.948 1.366.975.425 1.855.782 2.69 1.092.4.148.8.269 1.2.388a11.008 11.008 0 0 1 1.975.732 13.443 13.443 0 0 1 1.834 1.158 6.826 6.826 0 0 1 2.96 5.834 18.069 18.069 0 0 1-.495 4.555z" class="cls-1" data-name="Path 879" transform="translate(-115.323 -14.486)"/>
                <path id="Path_880-2" d="M139.6 22.089a11.679 11.679 0 0 0-1.6-1.012 9.557 9.557 0 0 0-1.738-.646c-.334-.1-.679-.2-1.013-.328a45.134 45.134 0 0 1-2.3-.934 55.34 55.34 0 0 1-2.527-1.17 8.951 8.951 0 0 0-4.044-.689c-7.145 1.364-8.162 9.856-8.17 9.936a13.055 13.055 0 0 0 .167 5.782 7.9 7.9 0 0 0 .851 2.092 17.092 17.092 0 0 0 6.3 5.8 25.025 25.025 0 0 0 3.753 1.764 6.953 6.953 0 0 0 2.891.544 9.931 9.931 0 0 0 2.533-.339.078.078 0 0 0-.04-.15 8.029 8.029 0 0 1-5.323-.2 24.772 24.772 0 0 1-3.737-1.758 16.941 16.941 0 0 1-6.243-5.747 11.309 11.309 0 0 1-1-7.769c.009-.084 1.014-8.463 8.04-9.805a8.8 8.8 0 0 1 3.956.677c.742.37 1.546.743 2.529 1.171.839.365 1.594.672 2.306.937.338.125.685.229 1.022.33a9.559 9.559 0 0 1 1.71.635 11.557 11.557 0 0 1 1.584 1 5.918 5.918 0 0 1 2.565 5.058 15.551 15.551 0 0 1-.429 3.929 7.587 7.587 0 0 1-1.175 2.439 4.233 4.233 0 0 1-.87.92l-.182.129a2.091 2.091 0 0 0-.735.712 3.509 3.509 0 0 0-.189 1.981c.011.117.022.232.03.345a3.557 3.557 0 0 1-.643 2.34 6.218 6.218 0 0 1-1.761 1.894.078.078 0 0 0-.021.107.076.076 0 0 0 .107.022 6.363 6.363 0 0 0 1.807-1.941 3.7 3.7 0 0 0 .667-2.434c-.009-.114-.02-.231-.031-.347a3.4 3.4 0 0 1 .173-1.9 1.98 1.98 0 0 1 .685-.655c.063-.044.126-.087.185-.131a4.353 4.353 0 0 0 .9-.953 7.753 7.753 0 0 0 1.2-2.489 15.7 15.7 0 0 0 .435-3.969 6.062 6.062 0 0 0-2.625-5.178z" class="cls-1" data-name="Path 880" transform="translate(-116.025 -15.23)"/>
                <path id="Path_881-2" d="M135.5 41.345c-1.9 1.622-5.246.721-5.273.713a20.538 20.538 0 0 1-3.087-1.451 14 14 0 0 1-5.157-4.747 9.342 9.342 0 0 1-.822-6.414c.008-.07.838-6.987 6.636-8.095a7.249 7.249 0 0 1 3.263.559c.616.307 1.28.615 2.091.968.7.3 1.319.556 1.908.775.28.1.567.19.845.273a7.824 7.824 0 0 1 1.412.524 9.556 9.556 0 0 1 1.307.825 4.878 4.878 0 0 1 2.115 4.171 12.794 12.794 0 0 1-.354 3.244 7.213 7.213 0 0 1-1.155 1.941c-.248.337-.483.656-.649.936a4.612 4.612 0 0 0-.592 2.441 4.181 4.181 0 0 1-.129 1.1.077.077 0 1 0 .148.046 4.3 4.3 0 0 0 .136-1.142 4.494 4.494 0 0 1 .57-2.367c.164-.274.4-.59.641-.924a7.256 7.256 0 0 0 1.18-1.991 12.974 12.974 0 0 0 .36-3.284 5.023 5.023 0 0 0-2.177-4.3 9.768 9.768 0 0 0-1.328-.838 7.98 7.98 0 0 0-1.439-.535 13.548 13.548 0 0 1-.837-.27 36.655 36.655 0 0 1-1.9-.771 44.122 44.122 0 0 1-2.089-.967 7.433 7.433 0 0 0-3.351-.571c-5.916 1.13-6.758 8.16-6.764 8.225a10.809 10.809 0 0 0 .14 4.786 6.534 6.534 0 0 0 .7 1.733 14.145 14.145 0 0 0 5.21 4.8 20.591 20.591 0 0 0 3.117 1.465 9.081 9.081 0 0 0 2.158.263 5 5 0 0 0 3.264-1.006.077.077 0 1 0-.1-.118z" class="cls-1" data-name="Path 881" transform="translate(-116.779 -16.263)"/>
                <path id="Path_882-2" d="M138.189 37.091a7.114 7.114 0 0 1 .831-1.264c.166-.216.337-.44.508-.692a3.526 3.526 0 0 0 .335-2.388c-.016-.186-.033-.372-.043-.557-.068-1.235-.21-3.8-1.789-4.744a4.836 4.836 0 0 0-2.067-.532l-.1-.009a14.465 14.465 0 0 1-.778-.09 20.879 20.879 0 0 1-3.275-.771l-.121-.04a8.536 8.536 0 0 0-2.831-.571 3.726 3.726 0 0 0-1.124.162 3.592 3.592 0 0 0-1.53 1.49l-.159.23c-1.08 1.521-2.735 4.532-1.692 7.608a6.645 6.645 0 0 0 .718 1.465.078.078 0 0 0 .131-.084 6.553 6.553 0 0 1-.7-1.43c-1.02-3.012.609-5.973 1.672-7.47l.161-.231a3.484 3.484 0 0 1 1.453-1.432 3.567 3.567 0 0 1 1.078-.154 8.39 8.39 0 0 1 2.779.563l.122.039a20.913 20.913 0 0 0 3.3.777c.259.04.527.065.787.09l.1.01a4.7 4.7 0 0 1 2 .511c1.508.9 1.648 3.41 1.714 4.618.01.187.026.375.043.563a3.411 3.411 0 0 1-.309 2.287c-.167.248-.338.47-.5.685a7.331 7.331 0 0 0-.847 1.291 4.825 4.825 0 0 0-.3 1.027 2.89 2.89 0 0 1-.679 1.6c-1.662 1.36-4.719 1.222-6.858.517a8.937 8.937 0 0 1-1.584-.71.077.077 0 1 0-.076.134 9.069 9.069 0 0 0 1.612.722 10.85 10.85 0 0 0 3.3.528 5.869 5.869 0 0 0 3.7-1.072 2.985 2.985 0 0 0 .733-1.689 4.733 4.733 0 0 1 .285-.987z" class="cls-1" data-name="Path 882" transform="translate(-117.633 -17.392)"/>
                <path id="Path_883-2" d="M133.229 39.133a5.645 5.645 0 0 0 4.8-2.175c1.109-1.64.776-2.961-.123-4.559a3.8 3.8 0 0 1-.4-1.751c-.125-1.919-2.238-1.924-3.782-1.927-.239 0-.466 0-.671-.009a4.424 4.424 0 0 1-1.253-.31 2.476 2.476 0 0 0-2.228-.071 4.822 4.822 0 0 0-1.548 2.048l-.144.281a6.56 6.56 0 0 0-.42 1 6.733 6.733 0 0 0-.325 1.9 5.028 5.028 0 0 0 2.822 4.89 8.158 8.158 0 0 0 3.272.683zm-5.94-5.563a6.529 6.529 0 0 1 .318-1.859 6.429 6.429 0 0 1 .409-.98c.048-.091.1-.185.145-.281a4.724 4.724 0 0 1 1.49-1.986 1.505 1.505 0 0 1 .8-.223 4.04 4.04 0 0 1 1.3.307 4.543 4.543 0 0 0 1.3.319c.206.007.435.008.677.008 1.565 0 3.513.008 3.628 1.783a3.911 3.911 0 0 0 .421 1.817c.891 1.587 1.2 2.815.129 4.4-1.593 2.356-5.331 2.583-7.882 1.444a4.875 4.875 0 0 1-2.735-4.748z" class="cls-1" data-name="Path 883" transform="translate(-118.458 -18.097)"/>
                <path id="Path_884-2" d="M133.383 38.242h.021a5.74 5.74 0 0 0 1.607-.287 4.2 4.2 0 0 0 1.555-.732 3.163 3.163 0 0 0 .97-2.649 9.061 9.061 0 0 0-.782-2.757 1.965 1.965 0 0 0-.483-.79 1.992 1.992 0 0 0-1.5-.265l-.291.019a3.9 3.9 0 0 1-1.225-.178l-.2-.057a5.534 5.534 0 0 0-1.166-.239c-2.048-.131-2.771 2.513-2.945 3.325a3.258 3.258 0 0 0 .269 2.3 4.09 4.09 0 0 0 1.392 1.314 5.209 5.209 0 0 0 2.778.996zm-4.034-2.389a3.1 3.1 0 0 1-.251-2.19c.163-.763.829-3.207 2.652-3.207h.131a5.427 5.427 0 0 1 1.133.234l.2.057a4.053 4.053 0 0 0 1.273.185c.1-.005.2-.012.3-.02a1.881 1.881 0 0 1 1.386.229 1.808 1.808 0 0 1 .44.73 8.944 8.944 0 0 1 .771 2.71 3.011 3.011 0 0 1-.916 2.52 4.066 4.066 0 0 1-1.5.7 5.493 5.493 0 0 1-1.584.281 5.067 5.067 0 0 1-2.694-.973 3.96 3.96 0 0 1-1.341-1.257z" class="cls-1" data-name="Path 884" transform="translate(-118.915 -18.684)"/>
            </g>
        </g>
    </g>
</svg>
