<svg xmlns="http://www.w3.org/2000/svg" width="212.357" height="30.576" viewBox="0 0 212.357 30.576">
    <defs>
        <style>
            .cls-1{fill:#133a3e}
        </style>
    </defs>
    <g id="Logo" transform="translate(-596.704 -21)">
        <g id="Group_1461" data-name="Group 1461" transform="translate(527 21)">
            <g id="Group_1458" data-name="Group 1458" transform="translate(114 7.04)">
                <path id="Path_869" d="M238.555 77.679h-3.522c-.3 0-.552-.23-.46-.46l1.842-5.317a.345.345 0 0 1 .645-.046l1.887 5.363a.379.379 0 0 1-.391.46m4.788 5.363l-5.364-15.285a.639.639 0 0 0-.575-.345h-1.312a.694.694 0 0 0-.6.368l-5.363 15.262c-.115.322.046.714.345.714h.943c.3 0 .76.046.92-.391l1.036-2.947a.685.685 0 0 1 .645-.529h5.34c.46 0 .667.3.806.713l.966 2.763c.162.437.622.391.921.391H243c.391 0 .46-.415.345-.714" class="cls-1" data-name="Path 869" transform="translate(-75.333 -67.228)"/>
                <path id="Path_870" d="M56.368 77.218v-9.207a.563.563 0 0 0-.576-.6h-1.035a.562.562 0 0 0-.575.6v9.207c0 3.176-.921 4.581-3.868 4.581-2.923 0-3.843-1.4-3.843-4.581v-9.207a.563.563 0 0 0-.576-.6h-1.036a.563.563 0 0 0-.575.6v9.207c0 4.419 1.865 6.767 6.03 6.767 4.19 0 6.054-2.348 6.054-6.767" class="cls-1" data-name="Path 870" transform="translate(-27.227 -67.228)"/>
                <path id="Path_871" d="M24.514 76.988h-.576a.513.513 0 0 1-.483-.576v-6.284a.511.511 0 0 1 .506-.506h.553c3.43 0 6.192.943 6.192 3.683 0 2.717-2.762 3.683-6.192 3.683m0-9.576h-2.67a.562.562 0 0 0-.575.6V83.18a.584.584 0 0 0 .575.576h1.036a.584.584 0 0 0 .575-.576V79.7a.51.51 0 0 1 .461-.529h.6c4.627 0 8.4-1.473 8.4-5.87 0-4.419-3.775-5.893-8.4-5.893" class="cls-1" data-name="Path 871" transform="translate(-21.269 -67.228)"/>
                <path id="Path_872" d="M72.066 76.988h-.576a.513.513 0 0 1-.483-.576v-6.284a.511.511 0 0 1 .507-.506h.552c3.43 0 6.192.943 6.192 3.683 0 2.716-2.762 3.683-6.192 3.683m5.663 2.071c-.23-.621-.115-.829.368-1.243a4.963 4.963 0 0 0 2.371-4.516c0-4.419-3.775-5.893-8.4-5.893H69.4a.562.562 0 0 0-.575.6V83.18a.585.585 0 0 0 .575.576h1.036a.585.585 0 0 0 .575-.576V79.7a.51.51 0 0 1 .461-.53h.6a22.43 22.43 0 0 0 2.555-.161c.345-.046.645.046.714.184l2.025 4.212a.662.662 0 0 0 .645.346H79.3c.529 0 .529-.346.368-.714z" class="cls-1" data-name="Path 872" transform="translate(-33.58 -67.228)"/>
                <path id="Path_873" d="M213.115 69.35a5.885 5.885 0 0 1 4.282 1.68.59.59 0 0 0 .852 0l.714-.713a.607.607 0 0 0 0-.829 8.092 8.092 0 0 0-5.847-2.324 8.379 8.379 0 1 0 0 16.757 8.267 8.267 0 0 0 5.847-2.325.606.606 0 0 0 0-.829l-.714-.714a.59.59 0 0 0-.852 0 6.019 6.019 0 0 1-4.282 1.681 6.192 6.192 0 0 1 0-12.385" class="cls-1" data-name="Path 873" transform="translate(-68.768 -67.164)"/>
                <path id="Path_874" d="M196.053 83.18V68.011a.562.562 0 0 0-.576-.6h-1.035a.562.562 0 0 0-.576.6V83.18a.586.586 0 0 0 .576.576h1.035a.586.586 0 0 0 .576-.576" class="cls-1" data-name="Path 874" transform="translate(-65.954 -67.228)"/>
                <path id="Path_875" d="M131.773 77.679h-3.523c-.3 0-.552-.23-.46-.46l1.842-5.317a.345.345 0 0 1 .645-.046l1.888 5.363a.38.38 0 0 1-.391.46m3.5 6.077h.943c.391 0 .461-.414.345-.714L131.2 67.757a.64.64 0 0 0-.575-.345h-1.312a.7.7 0 0 0-.6.368l-5.363 15.262c-.115.322.046.714.345.714h.943c.3 0 .76.046.921-.391l1.035-2.947a.686.686 0 0 1 .645-.529h5.34c.46 0 .668.3.806.714l.967 2.762c.161.437.621.391.92.391" class="cls-1" data-name="Path 875" transform="translate(-47.687 -67.228)"/>
                <path id="Path_876" d="M158.255 67.412H149a.563.563 0 0 0-.576.6V83.18a.585.585 0 0 0 .576.576h1.036a.585.585 0 0 0 .575-.576v-5.686a.488.488 0 0 1 .46-.506h7.182a.585.585 0 0 0 .575-.576v-1.035a.585.585 0 0 0-.575-.576h-7.182a.488.488 0 0 1-.46-.506v-4.167a.5.5 0 0 1 .46-.506h7.182a.606.606 0 0 0 .575-.6v-1.011a.59.59 0 0 0-.575-.6" class="cls-1" data-name="Path 876" transform="translate(-54.189 -67.228)"/>
                <path id="Path_877" d="M102.737 83.18v-1.036a.584.584 0 0 0-.576-.575H95a.492.492 0 0 1-.483-.507v-3.568a.488.488 0 0 1 .46-.506h7.181a.585.585 0 0 0 .576-.576v-1.036a.585.585 0 0 0-.576-.575H94.98c-.276 0-.46-.276-.46-.6v-4c0-.276.184-.575.46-.575h7.181a.606.606 0 0 0 .576-.6v-1.015a.59.59 0 0 0-.576-.6h-9.253a.562.562 0 0 0-.575.6V83.18a.585.585 0 0 0 .575.576h9.253a.585.585 0 0 0 .576-.576" class="cls-1" data-name="Path 877" transform="translate(-39.667 -67.228)"/>
                <path id="Path_878" d="M173.475 76.988h-.575a.513.513 0 0 1-.484-.576v-6.284a.511.511 0 0 1 .507-.506h.552c3.43 0 6.192.943 6.192 3.683 0 2.716-2.762 3.683-6.192 3.683m6.031.829a4.965 4.965 0 0 0 2.371-4.512c0-4.419-3.775-5.893-8.4-5.893h-2.67a.562.562 0 0 0-.575.6V83.18a.584.584 0 0 0 .575.576h1.036a.584.584 0 0 0 .575-.576V79.7a.51.51 0 0 1 .46-.529h.6a22.415 22.415 0 0 0 2.555-.162c.345-.046.644.046.714.184l2.025 4.212a.661.661 0 0 0 .644.346h1.29c.529 0 .529-.346.368-.714l-1.934-3.983c-.23-.621-.116-.829.368-1.243" class="cls-1" data-name="Path 878" transform="translate(-59.834 -67.228)"/>
            </g>
            <g id="Group_1459" data-name="Group 1459" transform="translate(69.704)">
                <path id="Path_879" d="M140.86 20.141a13.808 13.808 0 0 0-1.9-1.2 11.3 11.3 0 0 0-2.057-.765 19.585 19.585 0 0 1-1.183-.382 50.87 50.87 0 0 1-2.7-1.1 60.019 60.019 0 0 1-2.971-1.376 10.6 10.6 0 0 0-4.792-.813c-8.383 1.6-9.646 11.639-9.657 11.735a15.423 15.423 0 0 0 .2 6.824 9.283 9.283 0 0 0 1.007 2.475 20.156 20.156 0 0 0 7.424 6.84 29.451 29.451 0 0 0 4.43 2.083 8.775 8.775 0 0 0 3.084.592A8.287 8.287 0 0 0 135.724 44c1.733-.926 3.412-2.028 3.972-3.8a5.117 5.117 0 0 0 .113-1.907 3.875 3.875 0 0 1 .239-2.105 4.311 4.311 0 0 1 .875-1.006 6.827 6.827 0 0 0 .6-.623 10.069 10.069 0 0 0 1.934-3.582 18.539 18.539 0 0 0 .513-4.681 7.191 7.191 0 0 0-3.11-6.155zm2.289 10.744a9.752 9.752 0 0 1-1.874 3.465 6.672 6.672 0 0 1-.584.6 4.473 4.473 0 0 0-.932 1.085 4.182 4.182 0 0 0-.274 2.276 4.861 4.861 0 0 1-.1 1.786c-.525 1.664-2.144 2.72-3.815 3.614a7.783 7.783 0 0 1-6.791.455A29 29 0 0 1 124.4 42.1a19.832 19.832 0 0 1-7.312-6.73 9.143 9.143 0 0 1-.969-2.389 15.124 15.124 0 0 1-.19-6.694 17.51 17.51 0 0 1 1.625-5.183 11.011 11.011 0 0 1 7.76-6.276 5.429 5.429 0 0 1 .582-.024 10.862 10.862 0 0 1 4.027.813 60.3 60.3 0 0 0 2.975 1.378c.983.428 1.871.789 2.714 1.1.4.149.809.271 1.209.391a11.107 11.107 0 0 1 1.993.739 13.564 13.564 0 0 1 1.851 1.168 6.887 6.887 0 0 1 2.986 5.886 18.23 18.23 0 0 1-.502 4.605z" class="cls-1" data-name="Path 879" transform="translate(-115.323 -14.486)"/>
                <path id="Path_880" d="M139.794 22.132a11.783 11.783 0 0 0-1.619-1.021 9.642 9.642 0 0 0-1.753-.651c-.337-.1-.686-.206-1.022-.331a44.986 44.986 0 0 1-2.319-.942c-.99-.431-1.8-.806-2.549-1.181a9.031 9.031 0 0 0-4.08-.7c-7.209 1.376-8.234 9.944-8.243 10.025a13.172 13.172 0 0 0 .169 5.834 7.967 7.967 0 0 0 .859 2.111 17.245 17.245 0 0 0 6.353 5.851 25.247 25.247 0 0 0 3.786 1.78 7.015 7.015 0 0 0 2.917.548 10.019 10.019 0 0 0 2.555-.342.078.078 0 0 0-.04-.151 8.1 8.1 0 0 1-5.37-.2A25 25 0 0 1 125.667 41a17.092 17.092 0 0 1-6.3-5.8 11.41 11.41 0 0 1-1.006-7.839c.009-.085 1.023-8.539 8.112-9.893a8.882 8.882 0 0 1 3.992.683c.749.374 1.559.749 2.552 1.181.846.368 1.608.678 2.327.946.341.126.691.231 1.032.333a9.645 9.645 0 0 1 1.725.64 11.659 11.659 0 0 1 1.6 1.008 5.97 5.97 0 0 1 2.588 5.1 15.69 15.69 0 0 1-.433 3.964 7.655 7.655 0 0 1-1.186 2.46 4.272 4.272 0 0 1-.877.929c-.059.044-.121.086-.184.13a2.11 2.11 0 0 0-.741.718 3.54 3.54 0 0 0-.19 2c.011.118.022.234.03.348a3.589 3.589 0 0 1-.649 2.36 6.274 6.274 0 0 1-1.777 1.911.079.079 0 0 0-.021.108.077.077 0 0 0 .107.022 6.419 6.419 0 0 0 1.823-1.958 3.731 3.731 0 0 0 .673-2.455c-.009-.115-.02-.233-.031-.351a3.429 3.429 0 0 1 .175-1.914 2 2 0 0 1 .691-.661c.064-.044.127-.087.187-.132a4.392 4.392 0 0 0 .912-.962 7.822 7.822 0 0 0 1.21-2.511 15.84 15.84 0 0 0 .439-4 6.116 6.116 0 0 0-2.653-5.233z" class="cls-1" data-name="Path 880" transform="translate(-116.007 -15.212)"/>
                <path id="Path_881" d="M135.632 41.525c-1.918 1.636-5.293.727-5.32.72a20.722 20.722 0 0 1-3.115-1.464 14.123 14.123 0 0 1-5.2-4.79 9.425 9.425 0 0 1-.829-6.471c.008-.07.846-7.049 6.7-8.167a7.314 7.314 0 0 1 3.292.564c.621.31 1.292.62 2.11.977.7.305 1.33.561 1.925.782.282.1.572.192.853.276a7.893 7.893 0 0 1 1.424.528 9.64 9.64 0 0 1 1.319.832 4.921 4.921 0 0 1 2.134 4.208 12.912 12.912 0 0 1-.357 3.273 7.278 7.278 0 0 1-1.166 1.959c-.251.34-.487.662-.655.944a4.652 4.652 0 0 0-.6 2.463 4.22 4.22 0 0 1-.13 1.111.078.078 0 1 0 .149.047 4.334 4.334 0 0 0 .137-1.152 4.534 4.534 0 0 1 .575-2.388c.165-.276.4-.6.647-.932a7.321 7.321 0 0 0 1.191-2.009 13.091 13.091 0 0 0 .363-3.313 5.068 5.068 0 0 0-2.2-4.335 9.854 9.854 0 0 0-1.34-.846 8.051 8.051 0 0 0-1.452-.54c-.279-.083-.566-.17-.844-.273a36.949 36.949 0 0 1-1.916-.778 44.448 44.448 0 0 1-2.108-.976 7.5 7.5 0 0 0-3.381-.576c-5.969 1.14-6.818 8.233-6.825 8.3a10.905 10.905 0 0 0 .141 4.829 6.593 6.593 0 0 0 .711 1.748 14.271 14.271 0 0 0 5.257 4.842 20.776 20.776 0 0 0 3.145 1.478 9.163 9.163 0 0 0 2.177.265 5.045 5.045 0 0 0 3.293-1.015.078.078 0 1 0-.1-.119z" class="cls-1" data-name="Path 881" transform="translate(-116.743 -16.219)"/>
                <path id="Path_882" d="M138.315 37.2a7.178 7.178 0 0 1 .838-1.275c.167-.218.34-.444.512-.7a3.557 3.557 0 0 0 .335-2.413c-.016-.187-.033-.376-.044-.562-.069-1.246-.212-3.839-1.805-4.786a4.879 4.879 0 0 0-2.085-.537l-.1-.009a14.724 14.724 0 0 1-.785-.09 21.066 21.066 0 0 1-3.3-.778l-.122-.04a8.612 8.612 0 0 0-2.856-.576 3.759 3.759 0 0 0-1.134.164 3.624 3.624 0 0 0-1.544 1.5c-.055.08-.108.158-.161.232-1.089 1.535-2.759 4.573-1.707 7.676a6.705 6.705 0 0 0 .724 1.478.078.078 0 0 0 .132-.084 6.612 6.612 0 0 1-.708-1.443c-1.029-3.039.614-6.027 1.687-7.537.053-.074.107-.153.162-.233a3.515 3.515 0 0 1 1.466-1.444 3.6 3.6 0 0 1 1.087-.155 8.465 8.465 0 0 1 2.8.568l.123.039a21.1 21.1 0 0 0 3.328.784c.262.04.532.066.794.091l.1.01a4.745 4.745 0 0 1 2.021.516c1.521.9 1.662 3.441 1.73 4.659.01.188.027.378.044.568a3.441 3.441 0 0 1-.311 2.308c-.169.25-.341.474-.508.691a7.4 7.4 0 0 0-.854 1.3 4.868 4.868 0 0 0-.3 1.036 2.916 2.916 0 0 1-.686 1.617c-1.676 1.373-4.762 1.232-6.92.522a9.017 9.017 0 0 1-1.6-.716.078.078 0 1 0-.077.136 9.15 9.15 0 0 0 1.626.729 10.947 10.947 0 0 0 3.332.533 5.922 5.922 0 0 0 3.735-1.082 3.011 3.011 0 0 0 .74-1.7 4.774 4.774 0 0 1 .291-.997z" class="cls-1" data-name="Path 882" transform="translate(-117.576 -17.32)"/>
                <path id="Path_883" d="M133.283 39.232a5.7 5.7 0 0 0 4.844-2.194c1.119-1.655.783-2.987-.124-4.6a3.834 3.834 0 0 1-.4-1.767c-.126-1.936-2.258-1.941-3.816-1.944-.241 0-.471 0-.677-.009a4.463 4.463 0 0 1-1.264-.313 2.5 2.5 0 0 0-2.248-.071 4.865 4.865 0 0 0-1.562 2.066l-.145.283a6.618 6.618 0 0 0-.424 1.012 6.794 6.794 0 0 0-.328 1.92 5.073 5.073 0 0 0 2.847 4.934 8.231 8.231 0 0 0 3.297.683zm-5.993-5.612a6.587 6.587 0 0 1 .321-1.876 6.483 6.483 0 0 1 .413-.989c.048-.092.1-.187.146-.284a4.766 4.766 0 0 1 1.5-2 1.519 1.519 0 0 1 .808-.225 4.076 4.076 0 0 1 1.307.31 4.584 4.584 0 0 0 1.31.322c.208.007.439.008.683.008 1.579 0 3.544.008 3.66 1.8a3.945 3.945 0 0 0 .425 1.833c.9 1.6 1.209 2.84.13 4.436-1.607 2.377-5.379 2.606-7.953 1.457a4.918 4.918 0 0 1-2.749-4.792z" class="cls-1" data-name="Path 883" transform="translate(-118.381 -18.008)"/>
                <path id="Path_884" d="M133.424 38.313h.021a5.791 5.791 0 0 0 1.622-.29 4.237 4.237 0 0 0 1.569-.739 3.191 3.191 0 0 0 .979-2.672 9.143 9.143 0 0 0-.789-2.782 1.982 1.982 0 0 0-.488-.8 2.009 2.009 0 0 0-1.511-.268c-.1.007-.2.014-.293.019a3.932 3.932 0 0 1-1.235-.18l-.2-.058a5.583 5.583 0 0 0-1.176-.242c-2.066-.132-2.8 2.535-2.971 3.355a3.287 3.287 0 0 0 .271 2.32 4.127 4.127 0 0 0 1.4 1.326 5.255 5.255 0 0 0 2.801 1.011zm-4.07-2.411a3.126 3.126 0 0 1-.253-2.21c.165-.77.836-3.236 2.676-3.236h.132a5.476 5.476 0 0 1 1.144.236l.205.057a4.089 4.089 0 0 0 1.284.187c.1-.005.2-.013.3-.02a1.9 1.9 0 0 1 1.4.231 1.824 1.824 0 0 1 .444.737 9.024 9.024 0 0 1 .777 2.734 3.038 3.038 0 0 1-.924 2.543 4.1 4.1 0 0 1-1.512.708 5.542 5.542 0 0 1-1.6.283 5.112 5.112 0 0 1-2.718-.982 4 4 0 0 1-1.355-1.27z" class="cls-1" data-name="Path 884" transform="translate(-118.827 -18.58)"/>
            </g>
        </g>
    </g>
</svg>
