<svg xmlns="http://www.w3.org/2000/svg" width="391.9" height="429.268" viewBox="0 0 391.9 429.268">
    <defs>
        <style>
            .cls-1,.cls-7,.cls-8,.cls-9{fill:none}.cls-2{clip-path:url(#clip-path)}.cls-3{fill:#d6dad9}.cls-4{fill:#53565a;font-size:2px}.cls-11,.cls-4{font-family:Avenir-Book,Avenir}.cls-5{letter-spacing:.149em}.cls-6{letter-spacing:.15em}.cls-7,.cls-8,.cls-9{stroke:#6b5b45;stroke-miterlimit:10}.cls-7{stroke-width:.732px}.cls-8{stroke-width:.488px}.cls-9{stroke-width:.487px}.cls-10{fill:#082c3c}.cls-11{fill:#133a3e;font-size:6px;letter-spacing:.1em}
        </style>
        <clipPath id="clip-path">
            <path id="Rectangle_3096" d="M0 0h391.9v429.268H0z" class="cls-1" data-name="Rectangle 3096"/>
        </clipPath>
    </defs>
    <g id="Map" transform="translate(-.535 -.621)">
        <g id="Group_1472" data-name="Group 1472" transform="translate(.535 .621)">
            <g id="Group_1471" class="cls-2" data-name="Group 1471">
                <path id="Path_912" d="M317.462 401.012V435.6a7.971 7.971 0 0 1-4.939 7.367l-6.092 2.5a1.6 1.6 0 0 0-.989 1.478v.393a3.181 3.181 0 0 0-1.113-2.416l-2.534-2.169a10.409 10.409 0 0 0-6.788-2.512h-10.491a6.276 6.276 0 0 1-6.277-6.277v-9.744a4.97 4.97 0 0 0-4.973-4.974 4.968 4.968 0 0 1-4.136-2.214l-8.94-13.39v-1.978h7.794a13.3 13.3 0 0 0 9.626-4.125l10.153-10.66a7.548 7.548 0 0 1 5.468-2.343h5.369a3.743 3.743 0 0 0 2.466 3.573l9.9 3.608a9.885 9.885 0 0 1 6.5 9.294" class="cls-3" data-name="Path 912" transform="translate(-89.054 -131.501)"/>
            </g>
        </g>
        <text id="ZIMBABWE" class="cls-4" transform="translate(196.053 283.255)">
            <tspan x="0" y="0" class="cls-5">Z</tspan><tspan y="0" class="cls-6">IMBABW</tspan><tspan y="0">E</tspan>
        </text>
        <path id="Line_34" d="M0 2.035V0" class="cls-7" data-name="Line 34" transform="translate(143.606 185.395)"/>
        <g id="Group_1474" data-name="Group 1474" transform="translate(.535 .621)">
            <g id="Group_1473" class="cls-2" data-name="Group 1473">
                <path id="Path_913" d="M319.306 284.206l3.531 7.663 1.571 3.415a1.794 1.794 0 0 0 1.038.944l17.167 6.008v37.657l7.151 3.3a3.149 3.149 0 0 1 1.826 2.86V358.3a5.3 5.3 0 1 0 10.6 0v-10.074a6.375 6.375 0 0 0-1.265-3.815l-6.5-8.672a6.381 6.381 0 0 1-1.265-3.815v-22.171a6.575 6.575 0 0 0-1.388-4.042l-.727-.933a6.583 6.583 0 0 0-5.2-2.543h-3.237" class="cls-8" data-name="Path 913" transform="translate(-109.206 -97.297)"/>
                <path id="Path_914" d="M-21.671 87.015l21.263 27.776 10 27.621a11.009 11.009 0 0 1-.216 8.034l-11.63 27.487a13.785 13.785 0 0 0-1.087 5.356v12.048a13.712 13.712 0 0 0 1.763 6.736l18.394 32.721a4.1 4.1 0 0 1 .521 1.791l1.968 36.4a4.066 4.066 0 0 0 .931 2.4l12.55 15.18a4.959 4.959 0 0 1 .671 1.054l13.1 27.415a4.1 4.1 0 0 1-1.047 4.9 4.1 4.1 0 0 0-.461 5.793l7.551 8.843a4.105 4.105 0 0 0 4.756 1.1l9.569-4.147a4.054 4.054 0 0 1 1.635-.338h24.868a24.851 24.851 0 0 0 11.88-3.027l22.523-12.253a24.851 24.851 0 0 0 8.543-7.667l15.944-22.974a4.111 4.111 0 0 0 .732-2.34v-16.3a4.11 4.11 0 0 1 4.107-4.108h6.175a13.2 13.2 0 0 0 13.2-13.2v-29.767a7.9 7.9 0 0 1 3.864-6.791l32.063-19.058a9.433 9.433 0 0 0 4.607-8.227l-.422-32.76-10.023-36.467c.033-3.29-3.692-9.23 12.624-26.9 6.448-6.983 17.088-18.743 17.088-18.743s55.206-37.43 53.359-92.811c0 0 0-5.538-7.384-.616S247.235-4.672 241.7-7.133 196.161-63.745 187.546-77.9s-27.69-43.075-27.69-43.075-17.845-23.383-15.383-24.614 9.23 11.077 12.922 11.077 5.538-17.23 5.538-17.23-5.538-12.922-10.46-12.922-25.229 11.076-40 6.769-36.305-12.922-44.3-11.692-9.231 16-16 18.461-48-19.076-54.15-22.153-.616-8 .615-16 3.692-12.307-19.075-11.692-64 4.308-80 8-65.226 52.3-76.917 64-25.845 24-26.46 46.767-3.692 46.766 0 57.843 41.228 51.689 50.458 58.458 64.612-3.692 78.149-4.923 16.614-1.23 22.153 7.385 9.23 8.614 20.922 6.768S-14.9 44.556-14.9 54.4s-9.846 20.921-9.23 28.305zm123.714 115.1a5.528 5.528 0 0 0-5.527-5.533H49.6a7.478 7.478 0 0 1-5.289-2.19l-.221-.223a7.494 7.494 0 0 0-5.295-2.19H-3.346m36.128 98.58h24.68a1.567 1.567 0 0 0 1.569-1.569v-53a1.572 1.572 0 0 1 1.575-1.569h4.5a1.573 1.573 0 0 0 1.569-1.575v-27.215a1.573 1.573 0 0 1 1.575-1.569h33.793m44.642 48.456v11.343a4.973 4.973 0 0 1-4.973 4.974 4.976 4.976 0 0 0-4.977 4.979v3.752a4.976 4.976 0 0 0 4.977 4.974h1.625a3.348 3.348 0 0 0 3.348-3.349v-1.019a1.574 1.574 0 0 1 1.574-1.576h4.79m-22.806-36.418h6.147a10.266 10.266 0 0 1 6.7 2.478l2.5 2.14a3.14 3.14 0 0 1 1.1 2.384m-87.833 9.935c.061 0 .117 0 .178.005a5.972 5.972 0 0 1 5.8 5.971v10.4a1.567 1.567 0 0 0 1.569 1.569h5.677a7.671 7.671 0 0 0 6.99-4.508 7.609 7.609 0 0 1 6.924-4.463h6.585A14.167 14.167 0 0 0 104 260.3l11.691-15.918a10.289 10.289 0 0 1 8.3-4.2h2.051m20.644 12.341v-5.733a1.583 1.583 0 0 1 .975-1.458l6.01-2.466a7.864 7.864 0 0 0 4.873-7.269v-34.129a9.754 9.754 0 0 0-6.414-9.17l-9.762-3.559a3.694 3.694 0 0 1-2.433-3.527h-5.295a7.445 7.445 0 0 0-5.394 2.313l-10.017 10.516a13.115 13.115 0 0 1-9.5 4.07h-7.688v1.951l8.821 13.212a4.9 4.9 0 0 0 4.079 2.184 4.9 4.9 0 0 1 4.906 4.906v9.619a6.193 6.193 0 0 0 6.193 6.193h4.2m-44.936-43.6l-4.521-3.876a14.366 14.366 0 0 1-5.006-10.9v-18.331a2.155 2.155 0 0 1 2.157-2.157H89.3a2.161 2.161 0 0 0 2.162-2.157v-11.782l-11.936-.121a1.616 1.616 0 0 1-1.6-1.586l-.139-7.429a3.224 3.224 0 0 0-2.134-2.982 3.179 3.179 0 0 1-1.547-1.181 3.262 3.262 0 0 1-.587-1.863v-11.674m17.939 26.836h7.423a25.963 25.963 0 0 1 18.792 8.045l7.3 7.64a8.428 8.428 0 0 0 6.1 2.612h4.086a1.572 1.572 0 0 0 1.569-1.569v-4.392a1.573 1.573 0 0 0-1.569-1.574h-.571a6.291 6.291 0 0 1-6.292-6.292V131.4a4.794 4.794 0 0 1 4.795-4.8h10.889m19.746 47.951l-21.37 4.879a3.147 3.147 0 0 0-2.445 3.083l.023 2.694m34.325-28.5h42.391m22.612 121.366h3.67a9.689 9.689 0 0 0 9.025-6.176l24.5-63.042a12.133 12.133 0 0 0 .82-4.386v-21.55a2.386 2.386 0 0 0-4.174-1.581l-14.353 16.239a12.065 12.065 0 0 1-6.269 3.764l-6.242 1.486a12.116 12.116 0 0 0-8.065 6.443l-1.242 2.534a12.1 12.1 0 0 0-1.148 6.847l1.259 10.09a12.151 12.151 0 0 1-1.548 7.589l-6.94 11.942a12.125 12.125 0 0 0-1.419 8.382l2.617 13.566a9.686 9.686 0 0 0 9.509 7.856zM138.719 115.191l.763 1.657m-15.93 175.915a5.235 5.235 0 0 1 .4 7.64l-3.387 3.514a5.229 5.229 0 0 1-7.2.316l-.117-.1a5.234 5.234 0 0 1-.593-7.285L115 294.01a5.2 5.2 0 0 1 1.7-1.343l1.153-.576a5.238 5.238 0 0 1 5.699.671zm56.356-52.586a1.534 1.534 0 0 1-1.534-1.534V234.5a1.534 1.534 0 1 1 3.067 0v4.14a1.534 1.534 0 0 1-1.533 1.536z" class="cls-9" data-name="Path 914" transform="translate(69.738 68.122)"/>
                <path id="Path_917" d="M268.757 408.323l-2.9-4.054a3.6 3.6 0 0 1 2.776-5.693h.238a3.6 3.6 0 0 1 2.776 5.693z" class="cls-10" data-name="Path 917" transform="translate(-88.607 -128.1)"/>
                <text id="STANLEY_LIVINGSTON_BOUTIQUE_HOTEL" class="cls-11" data-name="STANLEY &amp; LIVINGSTON BOUTIQUE HOTEL" transform="translate(150.889 241.432)">
                    <tspan x="4.76" y="6">STANLEY &amp; </tspan><tspan x="2.174" y="16">LIVINGSTON</tspan>
                </text>
            </g>
        </g>
    </g>
</svg>
