<svg xmlns="http://www.w3.org/2000/svg" width="11.494" height="9.535" viewBox="0 0 11.494 9.535">
    <defs>
        <style>
            .cls-1{fill:#d6dad9}
        </style>
    </defs>
    <path id="Path_864" d="M32.994 25.664c-.054.433-.682.867-1.062 1.2.374 5.532-5.875 8.981-10.432 6.179a5.276 5.276 0 0 0 3.454-1.062 2.455 2.455 0 0 1-2.192-1.661c.323-.034.778.067 1-.067a2.438 2.438 0 0 1-1.86-2.326c.361.038.547.249 1 .2a2.7 2.7 0 0 1-.729-3.19 7.092 7.092 0 0 0 4.983 2.525 2.43 2.43 0 0 1 4.119-2.191 8.437 8.437 0 0 0 1.528-.531A3.2 3.2 0 0 1 31.8 26a3.628 3.628 0 0 0 1.2-.333" class="cls-1" data-name="Path 864" transform="translate(-21.5 -24.5)"/>
</svg>
