<svg xmlns="http://www.w3.org/2000/svg" width="11.494" height="11.494" viewBox="0 0 11.494 11.494">
    <defs>
        <style>
            .cls-1{fill:#d6dad9}
        </style>
    </defs>
    <path id="Path_866" d="M247.721 27.747a3.474 3.474 0 1 1-6.949 0 3.431 3.431 0 0 1 .065-.668H238.5V31.7a1.8 1.8 0 0 0 1.8 1.8h7.9a1.8 1.8 0 0 0 1.8-1.8v-4.621h-2.337a3.491 3.491 0 0 1 .064.668M248.2 22h-7.9a1.8 1.8 0 0 0-1.8 1.8v1.946h2.91a3.474 3.474 0 0 1 5.675 0h2.91V23.8a1.8 1.8 0 0 0-1.8-1.8m.879 2.219a.321.321 0 0 1-.321.321h-.962a.322.322 0 0 1-.32-.321v-.962a.322.322 0 0 1 .32-.321h.962a.321.321 0 0 1 .321.321zm-2.691 3.528a2.138 2.138 0 1 0-2.138 2.138 2.138 2.138 0 0 0 2.138-2.138" class="cls-1" data-name="Path 866" transform="translate(-238.5 -22)"/>
</svg>
