<svg xmlns="http://www.w3.org/2000/svg" width="458.942" height="489.756" viewBox="0 0 458.942 489.756">
  <g id="Only_Man" data-name="Only Man" transform="translate(218.08 -977.122)">
    <g id="Shape_Mark" data-name="Shape Mark" transform="translate(-270.542 752.802)" opacity="0.137">
      <path id="Path_849" data-name="Path 849" d="M57.522,412.818s17.8-161.583,154.053-187.6c0,0,34.236-4.107,76,13.011,15.757,7.881,31.824,15.192,47.977,22.223,14.429,6.285,28.986,12.285,43.741,17.765,17.365,6.45,35.564,9.736,52.088,18.413a220.267,220.267,0,0,1,30.289,19.106c32.648,24.619,49.824,56.352,49.321,97.3-.305,24.726-1.452,50.7-8.2,75.02-5.848,21.069-17.138,40.055-30.784,56.983-6.821,8.454-19.2,17.073-24.215,26.8-10.536,20.463.887,43.915-5.856,65.276-9.13,28.924-37.634,46.405-62.962,59.948-37.024,19.8-72.954,21.939-111.941,7.5a472.405,472.405,0,0,1-71.231-33.5c-46.983-27-90.819-62.814-119.108-109.66C76.693,561.4,40.4,505.938,57.522,412.818Z" transform="translate(0 0)" fill="none" stroke="#133a3e" stroke-miterlimit="10" stroke-width="0.8" opacity="0.593"/>
      <path id="Path_850" data-name="Path 850" d="M331.7,647.794c-53.589,14.12-87.59-3.245-87.59-3.245a405.521,405.521,0,0,1-61.16-28.764C142.611,592.6,104.973,561.85,80.68,521.626c0,0-31.155-47.618-16.458-127.574,0,0,15.283-138.742,132.275-161.08,0,0,29.395-3.53,65.255,11.167,13.53,6.767,27.328,13.044,41.193,19.081,12.392,5.4,24.891,10.549,37.564,15.254,14.908,5.542,30.533,8.359,44.719,15.811a189.274,189.274,0,0,1,26.009,16.4c28.034,21.139,42.78,48.389,42.351,83.544-.264,21.233-1.25,43.539-7.043,64.418a124.5,124.5,0,0,1-19.378,40.187c-4.165,5.678-8.755,11.118-14.458,15.287-5.217,3.819-11.505,7.3-14.574,13.262-5.9,11.46-3.381,25.019-2.454,37.279,1.142,15.085-2.738,26.38-10.693,38.937-7.6,12-17.167,23.374-29.1,31.275" transform="translate(22.955 24.424)" fill="none" stroke="#133a3e" stroke-linecap="round" stroke-linejoin="round" stroke-width="0.25"/>
      <path id="Path_851" data-name="Path 851" d="M346.644,535.541c4.784-15.163-2.054-34.574,11.637-57.515,7.914-13.25,25.436-32.289,29.588-47.247,4.788-17.258,5.6-35.7,5.819-53.251.359-29.065-11.835-51.593-35.007-69.066a156.911,156.911,0,0,0-21.5-13.563c-11.728-6.157-24.648-8.487-36.97-13.068-10.475-3.889-20.809-8.149-31.052-12.611-11.464-4.99-22.871-10.182-34.055-15.774-29.646-12.149-53.948-9.233-53.948-9.233C84.439,262.681,71.8,377.38,71.8,377.38c-12.153,66.1,13.609,105.463,13.609,105.463,20.079,33.254,51.2,58.674,84.546,77.841a335.092,335.092,0,0,0,50.558,23.778s55.387,15.353,87.289-11.86" transform="translate(48.771 59.747)" fill="none" stroke="#133a3e" stroke-linecap="round" stroke-linejoin="round" stroke-width="0.25"/>
      <path id="Path_852" data-name="Path 852" d="M151.078,484.95a146.442,146.442,0,0,0,26.067,11.674c34.071,11.225,84.992,14.338,113.075-8.652,10.874-8.9,10.561-31.477,16.326-43.325,6.149-12.631,14.1-20.491,21.935-32.071,9.39-13.889,5.435-31,4.536-47.263-1.377-24.891-4.581-62.1-28.578-76.365-10.1-6-21.662-7.369-33.2-8.5-4.821-.47-9.641-.9-14.351-1.621a340.469,340.469,0,0,1-53.61-12.631c-15.572-5.031-31.139-10.33-47.741-9.9-6.07.161-12.219.594-17.955,2.586-11.773,4.095-19.963,17.728-26.949,27.58-24.7,34.809-41.91,80.283-27.432,123a107.657,107.657,0,0,0,11.584,23.6" transform="translate(78.003 98.371)" fill="none" stroke="#133a3e" stroke-linecap="round" stroke-linejoin="round" stroke-width="0.25"/>
      <path id="Path_853" data-name="Path 853" d="M92.209,321.457a105.157,105.157,0,0,1,6.771-16.178c6.664-12.784,13.992-29.514,27.131-37.49,18.359-11.147,37.147,5.683,56.092,6.388,24.681.915,69.173-4.466,71.441,30.4.705,10.8,1.365,19.592,6.705,29.1,15.481,27.559,19.044,47.919,2.05,73.053-26.78,39.605-88.934,42.405-130.143,24-30.8-13.765-46.125-45.9-45.3-78.588A108.739,108.739,0,0,1,92.209,321.457Z" transform="translate(106.191 122.467)" fill="none" stroke="#133a3e" stroke-miterlimit="10" stroke-width="0.25"/>
      <path id="Path_854" data-name="Path 854" d="M162.191,275.281c-7.213-1.988-14.314-4.309-22.071-4.8C111.5,268.7,98.227,301.146,93.4,323.74c-2.623,12.293-2.041,25.733,4.239,36.62,5.151,8.936,13.637,15.423,22.306,21.011,13.468,8.685,28.586,15.98,44.616,16.083,8.9.054,17.662-2.12,26.2-4.639,8.862-2.615,17.84-5.74,24.9-11.7,11.864-10.009,16.409-26.665,15.39-42.154s-6.837-30.211-12.66-44.6c-1.835-4.532-3.806-9.245-7.53-12.408-7.456-6.33-18.537-4.19-28.306-3.715C175.3,278.593,168.7,277.075,162.191,275.281Z" transform="translate(121.823 142.551)" fill="none" stroke="#133a3e" stroke-miterlimit="10" stroke-width="0.25"/>
    </g>
  </g>
</svg>
