<svg xmlns="http://www.w3.org/2000/svg" width="49.749" height="53.076" viewBox="0 0 49.749 53.076">
    <defs>
        <style>
            .cls-1,.cls-2,.cls-3{fill:none;stroke:#133a3e}.cls-1,.cls-3{stroke-miterlimit:10}.cls-1{stroke-width:.8px}.cls-2{stroke-linecap:round;stroke-linejoin:round}.cls-2,.cls-3{stroke-width:.25px}
        </style>
    </defs>
    <g id="Shape_Mark" data-name="Shape Mark" transform="translate(-52.526 -224.342)">
        <path id="Path_849" d="M53.424 244.872s1.9-17.264 16.46-20.044a17.878 17.878 0 0 1 8.12 1.39c1.684.842 3.4 1.623 5.126 2.374 1.542.671 3.1 1.313 4.673 1.9a45.73 45.73 0 0 1 5.565 1.967A23.534 23.534 0 0 1 96.6 234.5a12.209 12.209 0 0 1 5.27 10.4 31.567 31.567 0 0 1-.87 8.01 17.1 17.1 0 0 1-3.292 6.09c-.729.9-2.052 1.824-2.587 2.863-1.126 2.186.095 4.692-.626 6.974-.976 3.09-4.021 4.958-6.727 6.4a13.758 13.758 0 0 1-11.96.8 50.472 50.472 0 0 1-7.611-3.579c-5.02-2.885-9.7-6.711-12.726-11.716.001.005-3.876-5.921-2.047-15.87z" class="cls-1" data-name="Path 849"/>
        <path id="Path_850" d="M89.281 276.961c-5.726 1.509-9.358-.347-9.358-.347a43.326 43.326 0 0 1-6.535-3.073 29.874 29.874 0 0 1-10.927-10.06s-3.329-5.088-1.758-13.63c0 0 1.633-14.824 14.133-17.21a15.347 15.347 0 0 1 6.972 1.193 92.17 92.17 0 0 0 4.4 2.039 78.333 78.333 0 0 0 4.013 1.63A39.3 39.3 0 0 1 95 239.19a20.221 20.221 0 0 1 2.779 1.753 10.484 10.484 0 0 1 4.525 8.926 27.126 27.126 0 0 1-.753 6.883 13.3 13.3 0 0 1-2.07 4.294 7.361 7.361 0 0 1-1.545 1.633 4.626 4.626 0 0 0-1.557 1.417c-.631 1.224-.361 2.673-.262 3.983a6.339 6.339 0 0 1-1.142 4.16 11.02 11.02 0 0 1-3.109 3.342" class="cls-2" data-name="Path 850" transform="translate(-4.111 -4.374)"/>
        <path id="Path_851" d="M98.259 275.067c.511-1.62-.219-3.694 1.243-6.145.846-1.416 2.718-3.45 3.161-5.048a22.413 22.413 0 0 0 .622-5.689 8.666 8.666 0 0 0-3.74-7.379 16.766 16.766 0 0 0-2.3-1.449 32.563 32.563 0 0 0-3.95-1.4 65.225 65.225 0 0 1-3.318-1.347 75.371 75.371 0 0 1-3.638-1.685 12.692 12.692 0 0 0-5.764-.986c-10.333 1.973-11.683 14.228-11.683 14.228-1.3 7.062 1.454 11.268 1.454 11.268a24.694 24.694 0 0 0 9.033 8.317 35.8 35.8 0 0 0 5.4 2.54s5.918 1.64 9.326-1.267" class="cls-2" data-name="Path 851" transform="translate(-8.734 -10.699)"/>
        <path id="Path_852" d="M85.722 280.7a15.645 15.645 0 0 0 2.785 1.247c3.64 1.2 9.081 1.532 12.081-.924 1.162-.951 1.128-3.363 1.744-4.629a27.16 27.16 0 0 1 2.344-3.427c1-1.484.581-3.312.485-5.05-.147-2.659-.49-6.635-3.053-8.159a8.346 8.346 0 0 0-3.547-.909c-.515-.05-1.03-.1-1.533-.173a36.378 36.378 0 0 1-5.728-1.35 15.339 15.339 0 0 0-5.1-1.057 6.337 6.337 0 0 0-1.918.276c-1.258.438-2.133 1.894-2.879 2.947-2.639 3.719-4.478 8.578-2.931 13.141a11.5 11.5 0 0 0 1.238 2.522" class="cls-2" data-name="Path 852" transform="translate(-13.968 -17.616)"/>
        <path id="Path_853" d="M87.492 270.126a11.233 11.233 0 0 1 .723-1.728c.712-1.366 1.495-3.153 2.9-4.006 1.962-1.191 3.969.607 5.993.682 2.637.1 7.391-.477 7.633 3.248a6.705 6.705 0 0 0 .716 3.109c1.654 2.945 2.035 5.12.219 7.805-2.861 4.232-9.5 4.531-13.9 2.564a8.688 8.688 0 0 1-4.84-8.4 11.618 11.618 0 0 1 .556-3.274z" class="cls-3" data-name="Path 853" transform="translate(-19.016 -21.931)"/>
        <path id="Path_854" d="M99.438 270.935a11.512 11.512 0 0 0-2.358-.512c-3.058-.191-4.476 3.276-4.992 5.69a5.554 5.554 0 0 0 .453 3.913 6.993 6.993 0 0 0 2.383 2.245 9.138 9.138 0 0 0 4.767 1.718 9.762 9.762 0 0 0 2.8-.5 7.187 7.187 0 0 0 2.661-1.25 5.409 5.409 0 0 0 1.644-4.5 15.647 15.647 0 0 0-1.353-4.765 3.273 3.273 0 0 0-.8-1.326c-.8-.676-1.98-.448-3.024-.4a6.8 6.8 0 0 1-2.181-.313z" class="cls-3" data-name="Path 854" transform="translate(-21.816 -25.527)"/>
    </g>
</svg>
