<svg xmlns="http://www.w3.org/2000/svg" width="411.736" height="450.995" viewBox="0 0 411.736 450.995">
    <defs>
        <style>
            .cls-1,.cls-7,.cls-8,.cls-9{fill:none}.cls-2{clip-path:url(#clip-path)}.cls-3{fill:#d6dad9}.cls-4{fill:#53565a;font-size:2px}.cls-11,.cls-4{font-family:Avenir-Book,Avenir}.cls-5{letter-spacing:.149em}.cls-6{letter-spacing:.15em}.cls-7,.cls-8,.cls-9{stroke:#6b5b45;stroke-miterlimit:10}.cls-7{stroke-width:.732px}.cls-8{stroke-width:.488px}.cls-9{stroke-width:.487px}.cls-10{fill:#082c3c}.cls-11{fill:#133a3e;font-size:6px;letter-spacing:.1em}
        </style>
        <clipPath id="clip-path">
            <path id="Rectangle_3096" d="M0 0h411.736v450.995H0z" class="cls-1" data-name="Rectangle 3096"/>
        </clipPath>
    </defs>
    <g id="Map" transform="translate(-.535 -.621)">
        <g id="Group_1472" data-name="Group 1472" transform="translate(.535 .621)">
            <g id="Group_1471" class="cls-2" data-name="Group 1471">
                <path id="Path_912" d="M320.36 401.846v36.343a8.374 8.374 0 0 1-5.189 7.74l-6.4 2.627a1.686 1.686 0 0 0-1.039 1.552v.413a3.342 3.342 0 0 0-1.169-2.539L303.9 445.7a10.936 10.936 0 0 0-7.132-2.639h-11.021a6.594 6.594 0 0 1-6.594-6.594v-10.239a5.221 5.221 0 0 0-5.224-5.228 5.22 5.22 0 0 1-4.345-2.326l-9.392-14.068v-2.078h8.188a13.969 13.969 0 0 0 10.113-4.333L289.16 387a7.93 7.93 0 0 1 5.745-2.462h5.638a3.933 3.933 0 0 0 2.591 3.754l10.4 3.791a10.386 10.386 0 0 1 6.83 9.764" class="cls-3" data-name="Path 912" transform="translate(-80.392 -118.693)"/>
            </g>
        </g>
        <text id="ZIMBABWE" class="cls-4" transform="translate(205.949 297.459)">
            <tspan x="0" y="0" class="cls-5">Z</tspan><tspan y="0" class="cls-6">IMBABW</tspan><tspan y="0">E</tspan>
        </text>
        <path id="Line_34" d="M0 2.138V0" class="cls-7" data-name="Line 34" transform="translate(150.848 194.747)"/>
        <g id="Group_1474" data-name="Group 1474" transform="translate(.535 .621)">
            <g id="Group_1473" class="cls-2" data-name="Group 1473">
                <path id="Path_913" d="M319.306 284.206l3.71 8.05 1.65 3.588a1.885 1.885 0 0 0 1.091.992l18.036 6.312v39.563l7.513 3.471a3.309 3.309 0 0 1 1.919 3v12.863a5.57 5.57 0 1 0 11.141 0v-10.578a6.7 6.7 0 0 0-1.329-4.008l-6.831-9.111a6.7 6.7 0 0 1-1.329-4.008v-23.294a6.908 6.908 0 0 0-1.458-4.247l-.764-.98a6.916 6.916 0 0 0-5.46-2.672h-3.4" class="cls-8" data-name="Path 913" transform="translate(-98.572 -87.837)"/>
                <path id="Path_914" d="M-12.362 101.594l22.34 29.182 10.5 29.019a11.566 11.566 0 0 1-.227 8.44L8.033 197.114a14.483 14.483 0 0 0-1.142 5.627V215.4a14.406 14.406 0 0 0 1.852 7.077l19.325 34.377a4.306 4.306 0 0 1 .548 1.882l2.068 38.239a4.272 4.272 0 0 0 .978 2.516l13.186 15.948a5.211 5.211 0 0 1 .7 1.107l13.768 28.8a4.308 4.308 0 0 1-1.1 5.144 4.308 4.308 0 0 0-.484 6.087l7.933 9.291a4.313 4.313 0 0 0 5 1.154l10.053-4.357a4.259 4.259 0 0 1 1.718-.355h26.127a26.109 26.109 0 0 0 12.481-3.18l23.663-12.873a26.109 26.109 0 0 0 8.975-8.055l16.751-24.137a4.319 4.319 0 0 0 .769-2.458V294.5a4.318 4.318 0 0 1 4.315-4.316h6.488a13.868 13.868 0 0 0 13.868-13.868v-31.277a8.3 8.3 0 0 1 4.06-7.134l33.686-20.026a9.91 9.91 0 0 0 4.84-8.644l-.443-34.418-10.53-38.317c.035-3.456-3.878-9.7 13.263-28.26 6.774-7.337 17.953-19.691 17.953-19.691s58-39.324 56.06-97.508c0 0 0-5.819-7.758-.647S270.155 5.266 264.336 2.681 216.5-56.8 207.445-71.665s-29.092-45.255-29.092-45.255-18.748-24.566-16.162-25.86 9.7 11.637 13.576 11.637 5.818-18.1 5.818-18.1-5.818-13.576-10.99-13.576-26.506 11.637-42.021 7.111-38.143-13.576-46.547-12.283-9.7 16.809-16.809 19.395S14.79-168.64 8.326-171.872s-.647-8.4.646-16.809 3.878-12.93-20.041-12.283-67.235 4.526-84.044 8.4-68.528 54.952-80.811 67.235-27.153 25.214-27.8 49.134-3.879 49.133 0 60.77 43.314 54.3 53.012 61.416 67.882-3.879 82.1-5.173 17.455-1.292 23.274 7.759 9.7 9.05 21.981 7.111 18.1 1.293 18.1 11.637-10.344 21.98-9.7 29.738zm129.976 120.922a5.808 5.808 0 0 0-5.807-5.813H62.518a7.857 7.857 0 0 1-5.556-2.3l-.233-.234a7.873 7.873 0 0 0-5.562-2.3H6.891m37.956 103.567h25.929a1.647 1.647 0 0 0 1.649-1.648v-55.677a1.652 1.652 0 0 1 1.654-1.648h4.729a1.653 1.653 0 0 0 1.648-1.655v-28.594a1.653 1.653 0 0 1 1.655-1.649h35.5m46.9 50.908v11.917a5.224 5.224 0 0 1-5.225 5.225 5.228 5.228 0 0 0-5.229 5.231v3.942a5.228 5.228 0 0 0 5.229 5.225H161a3.518 3.518 0 0 0 3.518-3.518v-1.071a1.654 1.654 0 0 1 1.654-1.656h5.028m-23.96-38.261h6.46a10.786 10.786 0 0 1 7.035 2.6l2.626 2.248a3.3 3.3 0 0 1 1.154 2.5M72.238 280.3c.064 0 .123 0 .187.006a6.275 6.275 0 0 1 6.092 6.274v10.92a1.646 1.646 0 0 0 1.648 1.649h5.964a8.059 8.059 0 0 0 7.344-4.736 7.994 7.994 0 0 1 7.274-4.689h6.918a14.884 14.884 0 0 0 12.005-6.08l12.283-16.723a10.809 10.809 0 0 1 8.719-4.414h2.155m21.689 12.965v-6.017a1.663 1.663 0 0 1 1.025-1.532l6.314-2.591a8.262 8.262 0 0 0 5.119-7.637V221.84a10.248 10.248 0 0 0-6.739-9.634l-10.257-3.739a3.881 3.881 0 0 1-2.556-3.705h-5.562a7.822 7.822 0 0 0-5.667 2.43l-10.524 11.048a13.778 13.778 0 0 1-9.978 4.276h-8.077v2.05l9.267 13.881a5.149 5.149 0 0 0 4.286 2.295 5.148 5.148 0 0 1 5.154 5.155V256a6.506 6.506 0 0 0 6.506 6.506h4.415M100.031 216.7l-4.753-4.077a15.093 15.093 0 0 1-5.259-11.446v-19.259a2.264 2.264 0 0 1 2.266-2.266h11.945a2.27 2.27 0 0 0 2.272-2.266v-12.379l-12.54-.127a1.7 1.7 0 0 1-1.677-1.666l-.146-7.805a3.387 3.387 0 0 0-2.242-3.133 3.339 3.339 0 0 1-1.625-1.241 3.427 3.427 0 0 1-.617-1.957v-12.265m18.845 28.194h7.8a27.277 27.277 0 0 1 19.743 8.452l7.665 8.026a8.855 8.855 0 0 0 6.412 2.744h4.293a1.652 1.652 0 0 0 1.649-1.649v-4.614a1.652 1.652 0 0 0-1.649-1.654h-.6a6.609 6.609 0 0 1-6.613-6.612v-21.473a5.036 5.036 0 0 1 5.038-5.038h11.433m20.745 50.378l-22.451 5.126a3.306 3.306 0 0 0-2.569 3.239l.024 2.83m36.062-29.944h44.537m23.757 127.509h3.856a10.18 10.18 0 0 0 9.482-6.489l25.74-66.238a12.747 12.747 0 0 0 .861-4.608v-22.64a2.507 2.507 0 0 0-4.385-1.66l-15.08 17.061a12.676 12.676 0 0 1-6.587 3.955l-6.558 1.561a12.73 12.73 0 0 0-8.474 6.769l-1.3 2.662a12.711 12.711 0 0 0-1.206 7.194l1.323 10.6a12.766 12.766 0 0 1-1.626 7.974l-7.292 12.547a12.739 12.739 0 0 0-1.491 8.807l2.749 14.253a10.176 10.176 0 0 0 9.991 8.251zM156.147 131.2l.8 1.741m-16.735 184.814a5.5 5.5 0 0 1 .419 8.027l-3.559 3.692a5.494 5.494 0 0 1-7.566.332l-.123-.1a5.5 5.5 0 0 1-.623-7.654l2.47-2.982a5.459 5.459 0 0 1 1.782-1.411l1.212-.605a5.5 5.5 0 0 1 5.988.701zm59.208-55.248a1.611 1.611 0 0 1-1.611-1.612v-4.349a1.611 1.611 0 1 1 3.223 0v4.349a1.612 1.612 0 0 1-1.612 1.612z" class="cls-9" data-name="Path 914" transform="translate(62.861 61.395)"/>
                <path id="Path_917" d="M268.938 408.817l-3.042-4.259a3.778 3.778 0 0 1 2.917-5.981h.25a3.778 3.778 0 0 1 2.917 5.981z" class="cls-10" data-name="Path 917" transform="translate(-79.67 -114.41)"/>
                <text id="STANLEY_LIVINGSTON_BOUTIQUE_HOTEL" class="cls-11" data-name="STANLEY &amp; LIVINGSTON BOUTIQUE HOTEL" transform="translate(158.527 253.652)">
                    <tspan x="5.908" y="6">STANLEY &amp; </tspan><tspan x="3.322" y="16">LIVINGSTON</tspan>
                </text>
            </g>
        </g>
    </g>
</svg>
